<svg width="256" height="256" viewBox="0 0 256 256" fill="none" xmlns="http://www.w3.org/2000/svg">
<g clip-path="url(#clip0_1_77)">
<path d="M50.5 -9.88359e-06H205.5C211.083 -0.00576627 216.612 1.19295 221.77 3.52754C226.929 5.86213 231.616 9.28676 235.564 13.6054C239.511 17.9241 242.642 23.052 244.776 28.6958C246.91 34.3395 248.005 40.3882 248 46.4957V209.504C248.005 215.612 246.91 221.66 244.776 227.304C242.642 232.948 239.511 238.076 235.564 242.395C231.616 246.713 226.929 250.138 221.77 252.472C216.612 254.807 211.083 256.006 205.5 256H50.5C44.9173 256.006 39.3884 254.807 34.2297 252.472C29.071 250.138 24.3838 246.713 20.4362 242.395C16.4887 238.076 13.3584 232.948 11.2244 227.304C9.09043 221.66 7.99473 215.612 7.99999 209.504V46.4957C7.99473 40.3882 9.09043 34.3395 11.2244 28.6958C13.3584 23.052 16.4887 17.9241 20.4362 13.6054C24.3838 9.28676 29.071 5.86213 34.2297 3.52754C39.3884 1.19295 44.9173 -0.00576627 50.5 -9.88359e-06V-9.88359e-06Z" fill="#330000"/>
<path d="M124.3 153.6H87.1L79.5 179.309C79.4151 179.778 79.1731 180.195 78.8215 180.478C78.47 180.762 78.0343 180.891 77.6 180.841H58.8C57.7 180.841 57.4 180.185 57.7 178.872L89.9 77.4564C90.2 76.3624 90.5 75.159 90.9 73.8461C91.3025 71.5015 91.5033 69.1207 91.5 66.735C91.47 66.461 91.5358 66.1848 91.6842 65.9616C91.8325 65.7384 92.0525 65.5849 92.3 65.5316H118.2C119 65.5316 119.4 65.8598 119.5 66.4068L156 179.091C156.3 180.294 156 180.841 155 180.841H134.1C133.747 180.878 133.392 180.778 133.1 180.558C132.807 180.338 132.595 180.012 132.5 179.638L124.3 153.6ZM92.9 131.391H118.3C117.7 129.094 116.9 126.359 116 123.515C115.1 120.67 114.2 117.388 113.3 114.106C112.4 110.824 111.4 107.432 110.4 104.041C109.4 100.65 108.5 97.4769 107.7 94.3043C106.9 91.1316 106.2 88.3966 105.5 85.7709H105.3C104.401 90.5391 103.266 95.2504 101.9 99.8838C100.4 105.135 98.9 110.605 97.3 116.075C95.9 121.655 94.4 126.797 92.9 131.391V131.391Z" fill="#FF9A00"/>
<path d="M177.8 84.2393C176.159 84.2786 174.526 83.9603 172.998 83.3029C171.47 82.6456 170.077 81.6623 168.9 80.4103C166.609 77.6696 165.389 74.0573 165.5 70.3453C165.441 68.5367 165.731 66.7348 166.351 65.0571C166.972 63.3794 167.908 61.8636 169.1 60.6085C171.504 58.1231 174.693 56.751 178 56.7795C181.9 56.7795 184.9 58.0923 187.1 60.6085C189.315 63.2613 190.499 66.7538 190.4 70.3453C190.461 72.1937 190.183 74.0367 189.582 75.7655C188.98 77.4942 188.069 79.0736 186.9 80.4103C185.722 81.7233 184.3 82.7446 182.73 83.4051C181.16 84.0657 179.479 84.3501 177.8 84.2393V84.2393ZM166.6 179.2V94.9607C166.6 93.8667 167 93.4291 167.9 93.4291H187.7C188.6 93.4291 189 93.9761 189 94.9607V179.2C189 180.403 188.6 180.95 187.7 180.95H168.1C167.89 180.969 167.678 180.936 167.482 180.853C167.285 180.77 167.108 180.64 166.964 180.472C166.819 180.303 166.712 180.101 166.649 179.881C166.586 179.661 166.569 179.428 166.6 179.2V179.2Z" fill="#FF9A00"/>
</g>
<defs>
<clipPath id="clip0_1_77">
<rect width="240" height="256" fill="white" transform="translate(8)"/>
</clipPath>
</defs>
</svg>
