<svg width="256" height="256" viewBox="0 0 256 256" fill="none" xmlns="http://www.w3.org/2000/svg">
<g clip-path="url(#clip0_1_13)">
<path d="M50.5 2.0634e-05H205.5C211.083 -0.00573575 216.612 1.19298 221.77 3.52757C226.929 5.86216 231.616 9.28679 235.564 13.6055C239.511 17.9241 242.642 23.0521 244.776 28.6958C246.91 34.3395 248.005 40.3882 248 46.4957V209.504C248.005 215.612 246.91 221.661 244.776 227.304C242.642 232.948 239.511 238.076 235.564 242.395C231.616 246.713 226.929 250.138 221.77 252.472C216.612 254.807 211.083 256.006 205.5 256H50.5C44.9173 256.006 39.3884 254.807 34.2297 252.472C29.071 250.138 24.3838 246.713 20.4362 242.395C16.4887 238.076 13.3584 232.948 11.2244 227.304C9.09043 221.661 7.99473 215.612 7.99999 209.504V46.4957C7.99473 40.3882 9.09043 34.3395 11.2244 28.6958C13.3584 23.0521 16.4887 17.9241 20.4362 13.6055C24.3838 9.28679 29.071 5.86216 34.2297 3.52757C39.3884 1.19298 44.9173 -0.00573575 50.5 2.0634e-05V2.0634e-05Z" fill="#000B1D"/>
<path d="M103 210.051C116.807 210.051 128 197.806 128 182.701V155.35H103C89.1929 155.35 78 167.596 78 182.701C78 197.806 89.1929 210.051 103 210.051Z" fill="#0ACF83"/>
<path d="M78 128C78 112.895 89.1929 100.65 103 100.65H128V155.35H103C89.1929 155.35 78 143.105 78 128Z" fill="#A259FF"/>
<path d="M78 73.2992C78 58.1939 89.1929 45.9487 103 45.9487H128V100.65H103C89.1929 100.65 78 88.4044 78 73.2992Z" fill="#F24E1E"/>
<path d="M128 45.9487H153C166.807 45.9487 178 58.1939 178 73.2992C178 88.4044 166.807 100.65 153 100.65H128V45.9487Z" fill="#FF7262"/>
<path d="M178 128C178 143.105 166.807 155.35 153 155.35C139.193 155.35 128 143.105 128 128C128 112.895 139.193 100.65 153 100.65C166.807 100.65 178 112.895 178 128Z" fill="#1ABCFE"/>
</g>
<defs>
<clipPath id="clip0_1_13">
<rect width="240" height="256" fill="white" transform="translate(8)"/>
</clipPath>
</defs>
</svg>
