<svg width="256" height="256" viewBox="0 0 256 256" fill="none" xmlns="http://www.w3.org/2000/svg">
<g clip-path="url(#clip0_1_189)">
<path d="M50.5 -9.88359e-06H205.5C211.083 -0.00576627 216.612 1.19295 221.77 3.52754C226.929 5.86213 231.616 9.28676 235.564 13.6054C239.511 17.9241 242.642 23.052 244.776 28.6958C246.91 34.3395 248.005 40.3882 248 46.4957V209.504C248.005 215.612 246.91 221.66 244.776 227.304C242.642 232.948 239.511 238.076 235.564 242.395C231.616 246.713 226.929 250.138 221.77 252.472C216.612 254.807 211.083 256.006 205.5 256H50.5C44.9173 256.006 39.3884 254.807 34.2297 252.472C29.071 250.138 24.3838 246.713 20.4362 242.395C16.4887 238.076 13.3584 232.948 11.2244 227.304C9.09045 221.66 7.99474 215.612 8 209.504V46.4957C7.99474 40.3882 9.09045 34.3395 11.2244 28.6958C13.3584 23.052 16.4887 17.9241 20.4362 13.6054C24.3838 9.28676 29.071 5.86213 34.2297 3.52754C39.3884 1.19295 44.9173 -0.00576627 50.5 -9.88359e-06V-9.88359e-06Z" fill="#49021F"/>
<path d="M95.2 66.9538V179.2C95.2 180.403 94.7 180.95 93.8 180.95H74.2C73.3 180.95 72.9 180.403 72.9 179.2V66.9538C72.9 65.9692 73.4 65.5316 74.3 65.5316H93.8C93.9516 65.5055 94.1065 65.5134 94.2552 65.5549C94.4039 65.5964 94.5433 65.6705 94.665 65.7729C94.7866 65.8753 94.8879 66.0037 94.9627 66.1503C95.0375 66.2969 95.0842 66.4586 95.1 66.6256C95.1378 66.6689 95.1664 66.7207 95.1837 66.7775C95.2009 66.8342 95.2065 66.8945 95.2 66.9538V66.9538Z" fill="#FF3366"/>
<path d="M152.8 182.701C145.387 182.834 138.042 181.152 131.3 177.778C125.028 174.569 119.771 169.389 116.2 162.899C112.5 156.226 110.7 147.911 110.7 137.956C110.599 129.859 112.499 121.884 116.2 114.872C119.995 107.745 125.491 101.883 132.1 97.9146C139.1 93.6479 147.5 91.5692 157.4 91.5692C158.101 91.5606 158.803 91.5971 159.5 91.6787C160.4 91.7881 161.4 91.7881 162.6 91.8975V57.3265C162.6 56.5607 162.9 56.1231 163.6 56.1231H183.9C184.124 56.0899 184.351 56.1503 184.537 56.2922C184.722 56.4341 184.852 56.6471 184.9 56.8889V161.258C184.9 163.227 185 165.415 185.1 167.822C185.2 170.229 185.4 172.308 185.5 174.168C185.521 174.537 185.436 174.905 185.257 175.218C185.078 175.532 184.813 175.777 184.5 175.918C179.262 178.326 173.795 180.088 168.2 181.169C163.118 182.177 157.965 182.689 152.8 182.701ZM162.6 160.821V112.684C161.71 112.449 160.808 112.266 159.9 112.137C158.8 112.027 157.7 111.918 156.6 111.918C152.68 111.87 148.806 112.845 145.3 114.762C141.883 116.625 138.957 119.412 136.8 122.858C134.6 126.359 133.5 131.063 133.5 136.752C133.413 140.592 133.99 144.415 135.2 148.021C136.167 150.936 137.703 153.587 139.7 155.788C141.628 157.801 143.955 159.299 146.5 160.164C149.179 161.124 151.981 161.604 154.8 161.586C156.3 161.586 157.7 161.477 159 161.368C160.222 161.471 161.45 161.284 162.6 160.821V160.821Z" fill="#FF3366"/>
</g>
<defs>
<clipPath id="clip0_1_189">
<rect width="240" height="256" fill="white" transform="translate(8)"/>
</clipPath>
</defs>
</svg>
