<svg width="256" height="256" viewBox="0 0 256 256" fill="none" xmlns="http://www.w3.org/2000/svg">
<g clip-path="url(#clip0_1_231)">
<g clip-path="url(#clip1_1_231)">
<path d="M49.4481 46.8333C57.2189 53.1458 60.1356 52.6666 74.7398 51.6874L212.396 43.427C215.313 43.427 212.886 40.5103 211.917 40.0312L189.042 23.4999C184.667 20.1041 178.823 16.2083 167.636 17.177L34.3543 26.9062C29.5002 27.3853 28.521 29.8228 30.4585 31.7603L49.4481 46.8333ZM57.7085 78.9166V223.75C57.7085 231.531 61.5939 234.448 70.3543 233.958L221.636 225.208C230.396 224.729 231.375 219.375 231.375 213.052V69.1874C231.375 62.8749 228.948 59.4687 223.583 59.9478L65.4898 69.1874C59.6564 69.677 57.7085 72.5937 57.7085 78.9062V78.9166ZM207.052 86.677C208.021 91.052 207.052 95.427 202.677 95.927L195.386 97.3854V204.302C189.052 207.708 183.219 209.656 178.354 209.656C170.563 209.656 168.615 207.219 162.781 199.937L115.104 125.083V197.5L130.188 200.917C130.188 200.917 130.188 209.667 118.021 209.667L84.4585 211.604C83.4898 209.667 84.4585 204.802 87.8648 203.833L96.6148 201.406V105.646L84.4793 104.667C83.5002 100.292 85.9377 93.9791 92.7397 93.4895L128.74 91.0624L178.365 166.885V99.802L165.708 98.3541C164.74 92.9999 168.625 89.1145 173.49 88.6354L207.052 86.677ZM23.1668 13.7812L161.813 3.57284C178.833 2.1145 183.219 3.08325 193.917 10.8645L238.177 41.9687C245.469 47.3124 247.906 48.7708 247.906 54.6041V225.208C247.906 235.896 244.021 242.229 230.406 243.187L69.3856 252.917C59.1773 253.406 54.3023 251.948 48.9481 245.135L16.3543 202.844C10.521 195.062 8.09393 189.24 8.09393 182.427V30.7812C8.09393 22.0416 11.9898 14.7395 23.1668 13.7812V13.7812Z" fill="#2F3437"/>
<path d="M49.4481 46.8333C57.2189 53.1458 60.1356 52.6666 74.7398 51.6874L212.396 43.427C215.313 43.427 212.886 40.5103 211.917 40.0312L189.042 23.4999C184.667 20.1041 178.823 16.2083 167.636 17.177L34.3543 26.9062C29.5002 27.3853 28.521 29.8228 30.4585 31.7603L49.4481 46.8333Z" fill="white"/>
<path fill-rule="evenodd" clip-rule="evenodd" d="M57.7085 78.9166V223.75C57.7085 231.531 61.5939 234.448 70.3543 233.958L221.636 225.208C230.396 224.729 231.375 219.375 231.375 213.052V69.1874C231.375 62.8749 228.948 59.4687 223.583 59.9478L65.4898 69.1874C59.6564 69.677 57.7085 72.5937 57.7085 78.9062V78.9166ZM202.677 95.927C207.052 95.427 208.021 91.052 207.052 86.677L173.49 88.6354C168.625 89.1145 164.74 92.9999 165.708 98.3541L178.365 99.802V166.885L128.74 91.0624L92.7397 93.4895C85.9377 93.9791 83.5002 100.292 84.4793 104.667L96.6148 105.646V201.406L87.8648 203.833C84.4585 204.802 83.4898 209.667 84.4585 211.604L118.021 209.667C130.188 209.667 130.188 200.917 130.188 200.917L115.104 197.5V125.083L162.781 199.937L162.792 199.951C168.617 207.222 170.568 209.656 178.354 209.656C183.219 209.656 189.052 207.708 195.386 204.302V97.3854L202.677 95.927Z" fill="white"/>
</g>
</g>
<defs>
<clipPath id="clip0_1_231">
<rect width="250" height="250" fill="white" transform="translate(3 3)"/>
</clipPath>
<clipPath id="clip1_1_231">
<rect width="250" height="250" fill="white" transform="translate(3 3)"/>
</clipPath>
</defs>
</svg>
