<svg width="256" height="256" viewBox="0 0 256 256" fill="none" xmlns="http://www.w3.org/2000/svg">
<g clip-path="url(#clip0_1_127)">
<path d="M50.5 -9.88359e-06H205.5C211.083 -0.00576627 216.612 1.19295 221.77 3.52754C226.929 5.86213 231.616 9.28676 235.564 13.6054C239.511 17.9241 242.642 23.052 244.776 28.6958C246.91 34.3395 248.005 40.3882 248 46.4957V209.504C248.005 215.612 246.91 221.66 244.776 227.304C242.642 232.948 239.511 238.076 235.564 242.395C231.616 246.713 226.929 250.138 221.77 252.472C216.612 254.807 211.083 256.006 205.5 256H50.5C44.9173 256.006 39.3884 254.807 34.2297 252.472C29.071 250.138 24.3838 246.713 20.4362 242.395C16.4887 238.076 13.3584 232.948 11.2244 227.304C9.09045 221.66 7.99474 215.612 8 209.504V46.4957C7.99474 40.3882 9.09045 34.3395 11.2244 28.6958C13.3584 23.052 16.4887 17.9241 20.4362 13.6054C24.3838 9.28676 29.071 5.86213 34.2297 3.52754C39.3884 1.19295 44.9173 -0.00576627 50.5 -9.88359e-06V-9.88359e-06Z" fill="#001E36"/>
<path d="M62 179.528V66.9538C62 66.188 62.3 65.7504 63 65.7504C64.7 65.7504 66.3 65.7504 68.6 65.641C70.9 65.5316 73.5 65.5316 76.2 65.4222C78.9 65.3128 81.8 65.3128 84.9 65.2034C88 65.094 91 65.094 94 65.094C102.2 65.094 109 66.188 114.6 68.4854C119.62 70.3505 124.197 73.4149 128 77.4564C131.222 80.9931 133.712 85.2465 135.3 89.9282C136.814 94.4874 137.592 99.2997 137.6 104.15C137.6 113.559 135.6 121.326 131.6 127.453C127.581 133.571 121.971 138.222 115.5 140.8C108.7 143.535 101.2 144.52 93 144.52C90.6 144.52 89 144.52 88 144.41C87 144.301 85.6 144.301 83.7 144.301V179.419C83.7223 179.599 83.7114 179.782 83.6678 179.957C83.6242 180.132 83.5489 180.296 83.4463 180.439C83.3437 180.582 83.2159 180.701 83.0705 180.789C82.9252 180.877 82.7652 180.932 82.6 180.95H63.2C62.4 180.95 62 180.513 62 179.528ZM83.8 86.8649V123.624C85.2 123.733 86.5 123.843 87.7 123.843H93C96.9038 123.848 100.784 123.183 104.5 121.873C107.688 120.848 110.536 118.834 112.7 116.075C114.8 113.34 115.8 109.62 115.8 104.807C115.894 101.388 115.096 98.0108 113.5 95.0701C111.833 92.2295 109.38 90.045 106.5 88.8342C102.746 87.2256 98.729 86.4807 94.7 86.6461C92.1 86.6461 89.8 86.6461 87.9 86.7555C86.5331 86.6578 85.1609 86.6944 83.8 86.8649V86.8649Z" fill="#31A8FF"/>
<path d="M200 116.95C196.981 115.211 193.747 113.958 190.4 113.231C186.724 112.32 182.969 111.843 179.2 111.809C177.176 111.732 175.153 111.99 173.2 112.574C171.954 112.858 170.85 113.638 170.1 114.762C169.595 115.65 169.318 116.671 169.3 117.716C169.346 118.757 169.697 119.754 170.3 120.561C171.248 121.777 172.403 122.78 173.7 123.515C176 124.827 178.4 126.031 180.8 127.125C186.203 129.115 191.372 131.795 196.2 135.111C199.484 137.37 202.2 140.492 204.1 144.191C205.707 147.682 206.497 151.553 206.4 155.46C206.481 160.631 205.121 165.706 202.5 170.01C199.711 174.377 195.819 177.761 191.3 179.747C186.4 182.044 180.4 183.248 173.2 183.248C168.635 183.268 164.079 182.792 159.6 181.826C156.073 181.159 152.643 179.982 149.4 178.325C149.051 178.133 148.761 177.835 148.566 177.465C148.371 177.096 148.278 176.672 148.3 176.246V157.21C148.291 157.023 148.323 156.837 148.393 156.666C148.462 156.495 148.567 156.344 148.7 156.226C148.841 156.136 149.004 156.098 149.167 156.118C149.329 156.137 149.481 156.214 149.6 156.335C153.452 158.819 157.636 160.628 162 161.696C165.853 162.793 169.819 163.344 173.8 163.337C177.6 163.337 180.3 162.79 182.1 161.805C182.903 161.399 183.583 160.752 184.062 159.938C184.54 159.124 184.796 158.178 184.8 157.21C184.8 155.679 184 154.256 182.4 152.834C180.8 151.412 177.5 149.771 172.6 147.692C167.573 145.755 162.8 143.106 158.4 139.815C155.266 137.372 152.67 134.195 150.8 130.516C149.204 127.061 148.414 123.227 148.5 119.357C148.515 114.689 149.69 110.113 151.9 106.12C154.44 101.728 158.087 98.2327 162.4 96.0547C167.1 93.4291 173 92.2256 180.1 92.2256C184.25 92.2269 188.394 92.556 192.5 93.2103C195.452 93.6473 198.342 94.4928 201.1 95.7265C201.539 95.8969 201.899 96.251 202.1 96.7111C202.215 97.1382 202.282 97.5791 202.3 98.0239V115.856C202.302 116.069 202.257 116.279 202.17 116.469C202.083 116.659 201.956 116.824 201.8 116.95C201.218 117.179 200.582 117.179 200 116.95Z" fill="#31A8FF"/>
</g>
<defs>
<clipPath id="clip0_1_127">
<rect width="240" height="256" fill="white" transform="translate(8)"/>
</clipPath>
</defs>
</svg>
