<svg width="256" height="256" viewBox="0 0 256 256" fill="none" xmlns="http://www.w3.org/2000/svg">
<g clip-path="url(#clip0_1_39)">
<path d="M50.5 2.0634e-05H205.5C211.083 -0.00573575 216.612 1.19298 221.77 3.52757C226.929 5.86216 231.616 9.28679 235.564 13.6055C239.511 17.9241 242.642 23.0521 244.776 28.6958C246.91 34.3395 248.005 40.3882 248 46.4957V209.504C248.005 215.612 246.91 221.661 244.776 227.304C242.642 232.948 239.511 238.076 235.564 242.395C231.616 246.713 226.929 250.138 221.77 252.472C216.612 254.807 211.083 256.006 205.5 256H50.5C44.9173 256.006 39.3884 254.807 34.2297 252.472C29.071 250.138 24.3838 246.713 20.4362 242.395C16.4887 238.076 13.3584 232.948 11.2244 227.304C9.09045 221.661 7.99474 215.612 8 209.504V46.4957C7.99474 40.3882 9.09045 34.3395 11.2244 28.6958C13.3584 23.0521 16.4887 17.9241 20.4362 13.6055C24.3838 9.28679 29.071 5.86216 34.2297 3.52757C39.3884 1.19298 44.9173 -0.00573575 50.5 2.0634e-05V2.0634e-05Z" fill="#470137"/>
<path d="M134.2 67.2821L104.2 121.436L136.2 178.872C136.411 179.268 136.482 179.735 136.4 180.185C136.3 180.622 135.9 180.294 135.3 180.403H112.4C110.8 180.403 109.7 180.294 109 179.2C106.9 174.605 104.7 170.12 102.6 165.525C100.5 160.93 98.2 156.444 95.8 151.74C93.4 147.036 91 142.332 88.6 137.518H88.4C86.3 142.222 84 146.927 81.7 151.631C79.4 156.335 77.1 161.039 74.9 165.634C72.7 170.229 70.3 174.933 68 179.419C67.6 180.513 66.8 180.622 65.7 180.622H43.7C43.3 180.622 43 180.841 43 180.294C42.9554 180.089 42.9501 179.876 42.9845 179.669C43.0189 179.462 43.0923 179.265 43.2 179.091L74.3 123.296L44 67.1727C43.7 66.735 43.6 66.2974 43.8 66.0786C43.9219 65.9227 44.0766 65.8014 44.2508 65.7252C44.4249 65.649 44.6134 65.6201 44.8 65.641H67.5C67.973 65.6523 68.443 65.7258 68.9 65.8598C69.3006 66.0957 69.6436 66.4334 69.9 66.8444C71.8 71.5487 74 76.253 76.3 80.9573C78.6 85.6615 81 90.2564 83.5 94.8513C86 99.4462 88.1 104.041 90.2 108.745H90.4C92.5 103.932 94.7 99.2274 96.9 94.6325C99.1 90.0376 101.4 85.4427 103.7 80.8479C106 76.253 108.2 71.5487 110.4 67.0633C110.476 66.6326 110.688 66.2451 111 65.9692C111.396 65.7302 111.857 65.6527 112.3 65.7504H133.4C133.518 65.7214 133.64 65.7182 133.76 65.741C133.879 65.7638 133.993 65.8122 134.095 65.8834C134.198 65.9545 134.286 66.047 134.355 66.1557C134.425 66.2643 134.474 66.3868 134.5 66.5162C134.6 66.6256 134.4 67.0633 134.2 67.2821V67.2821Z" fill="#FF61F6"/>
<path d="M180.4 182.701C172.987 182.834 165.642 181.152 158.9 177.778C152.628 174.569 147.371 169.389 143.8 162.899C140.1 156.226 138.3 147.911 138.3 137.956C138.199 129.859 140.099 121.884 143.8 114.872C147.595 107.745 153.091 101.883 159.7 97.9146C166.7 93.6479 175.1 91.5692 185 91.5692C185.701 91.5606 186.403 91.5971 187.1 91.6787C188 91.7881 189 91.7881 190.2 91.8975V57.3265C190.2 56.5607 190.5 56.1231 191.2 56.1231H211.5C211.724 56.0899 211.951 56.1503 212.137 56.2922C212.322 56.4341 212.452 56.6471 212.5 56.8889V161.258C212.5 163.227 212.6 165.415 212.7 167.822C212.8 170.229 213 172.308 213.1 174.168C213.121 174.537 213.036 174.905 212.857 175.218C212.678 175.532 212.413 175.777 212.1 175.918C206.862 178.326 201.395 180.088 195.8 181.169C190.718 182.172 185.564 182.685 180.4 182.701V182.701ZM190.2 160.821V112.684C189.31 112.449 188.408 112.266 187.5 112.137C186.4 112.027 185.3 111.918 184.2 111.918C180.28 111.87 176.406 112.845 172.9 114.762C169.483 116.625 166.557 119.412 164.4 122.858C162.2 126.359 161.1 131.063 161.1 136.752C161.013 140.592 161.59 144.415 162.8 148.021C163.767 150.936 165.303 153.587 167.3 155.788C169.228 157.801 171.555 159.299 174.1 160.164C176.779 161.124 179.581 161.604 182.4 161.586C183.9 161.586 185.3 161.477 186.6 161.368C187.822 161.463 189.048 161.277 190.2 160.821V160.821Z" fill="#FF61F6"/>
</g>
<defs>
<clipPath id="clip0_1_39">
<rect width="240" height="256" fill="white" transform="translate(8)"/>
</clipPath>
</defs>
</svg>
